<?xml version="1.0" encoding="UTF-8"?>
<svg version="1.1" xmlns="http://www.w3.org/2000/svg" width="128" height="113">
<path d="M0 0 C42.24 0 84.48 0 128 0 C128 37.29 128 74.58 128 113 C85.76 113 43.52 113 0 113 C0 75.71 0 38.42 0 0 Z " fill="#050043" transform="translate(0,0)"/>
<path d="M0 0 C42.24 0 84.48 0 128 0 C128 37.29 128 74.58 128 113 C85.76 113 43.52 113 0 113 C0 75.71 0 38.42 0 0 Z M13.29296875 23.265625 C3.68662863 34.7212265 -0.29473566 47.15488021 1 62 C3.07699367 75.08989032 8.84808231 83.65574779 18 93 C18.51949219 93.55558594 19.03898437 94.11117187 19.57421875 94.68359375 C31.51234666 106.24571763 49.19504062 110.49759751 65.26367188 110.35424805 C81.29871804 109.87312866 95.35211057 104.7982783 108 95 C108.83660156 94.37351562 109.67320313 93.74703125 110.53515625 93.1015625 C118.75395065 86.09409596 125.4360393 74.75621951 127 64 C127.74768693 48.62894771 125.76174992 35.67075109 115.22265625 23.7109375 C102.05727716 9.66585901 85.61148565 2.80897445 66.45703125 1.81640625 C45.93942395 1.43603621 27.58653434 8.26760705 13.29296875 23.265625 Z " fill="#FBFBFC" transform="translate(0,0)"/>
<path d="M0 0 C0.89589844 0.37511719 1.79179688 0.75023437 2.71484375 1.13671875 C8.48856787 3.64737793 13.74863841 6.5321197 19 10 C18.34 10.66 17.68 11.32 17 12 C16.83322718 15.58343976 16.83322718 15.58343976 17 19 C20.3 19.33 23.6 19.66 27 20 C27.67218507 22.74875682 28.33792435 25.49880726 29 28.25 C29.19078125 29.02730469 29.3815625 29.80460937 29.578125 30.60546875 C29.75859375 31.35957031 29.9390625 32.11367188 30.125 32.890625 C30.37636719 33.92751465 30.37636719 33.92751465 30.6328125 34.98535156 C31 37 31 37 31 41 C31.66 41 32.32 41 33 41 C33.103125 39.741875 33.20625 38.48375 33.3125 37.1875 C33.91590491 31.6148782 35.40690933 26.36039942 37 21 C38.65 21 40.3 21 42 21 C43.65 26.28 45.3 31.56 47 37 C47.61875 35.123125 48.2375 33.24625 48.875 31.3125 C50.13639242 27.48627631 51.46554372 23.72554925 53 20 C56.3 20 59.6 20 63 20 C62.77860352 20.65895264 62.55720703 21.31790527 62.32910156 21.99682617 C56.8012276 38.38294263 56.8012276 38.38294263 51.69140625 54.90234375 C51 57 51 57 50 58 C48.33382885 58.04063832 46.66611905 58.042721 45 58 C44.65066406 57.07316406 44.30132812 56.14632812 43.94140625 55.19140625 C43.48636719 53.99386719 43.03132813 52.79632813 42.5625 51.5625 C42.11003906 50.36753906 41.65757813 49.17257813 41.19140625 47.94140625 C40.2855174 45.15554277 40.2855174 45.15554277 39 44 C38.81824219 44.64066406 38.63648437 45.28132813 38.44921875 45.94140625 C36.93729955 51.14395897 35.24999329 56.07144327 33 61 C32.34 61 31.68 61 31 61 C30.67 61.66 30.34 62.32 30 63 C29.01 63 28.02 63 27 63 C27.66576999 66.14385039 27.66576999 66.14385039 30.1875 67.16796875 C38.44555857 70.16151498 45.69613998 71.75650811 54 68 C55.83689476 66.50113129 55.83689476 66.50113129 57 65 C56.73212125 68.92888829 56.47562903 70.54876221 53.5625 73.3125 C47.94446049 77.01218455 42.59998903 76.59936542 36 76 C17.32810842 71.51539304 -1.10587656 59.02925923 -13 44 C-13.99870527 42.89466213 -14.99870329 41.7904909 -16 40.6875 C-23.98288126 31.27453039 -30.95719133 19.95797673 -30.390625 7.23046875 C-29.77981875 3.74276505 -28.34179325 1.6019925 -26 -1 C-18.54015142 -5.83477937 -7.63501642 -3.33285065 0 0 Z " fill="#060042" transform="translate(50,19)"/>
<path d="M0 0 C0.33 0.66 0.66 1.32 1 2 C0.67 2.99 0.34 3.98 0 5 C-1.1026439 13.30133334 1.32335885 19.6467177 5 27 C5.4228125 27.845625 5.845625 28.69125 6.28125 29.5625 C9.52405622 35.44479965 13.65894226 40.18181527 18.30517578 44.97851562 C20.56969 47.32900409 21.95201252 48.85603755 23 52 C22.0625 54.6875 22.0625 54.6875 21 57 C21.96099609 56.89558594 21.96099609 56.89558594 22.94140625 56.7890625 C29.92879446 56.3516999 29.92879446 56.3516999 32.80078125 58.08984375 C33.88608663 59.10512942 34.9502671 60.14331185 35.99609375 61.19921875 C40.10385755 64.89060103 45.19092387 67.33092326 50 70 C49.20207031 70.60328125 48.40414062 71.2065625 47.58203125 71.828125 C44.8454793 74.12997505 44.028139 75.63518144 43 79 C42.01 78.67 41.02 78.34 40 78 C40.66666667 75.33333333 41.33333333 72.66666667 42 70 C41.01 69.505 41.01 69.505 40 69 C39.731875 70.134375 39.46375 71.26875 39.1875 72.4375 C38.795625 73.613125 38.40375 74.78875 38 76 C32 78 32 78 29 78 C27.66018514 78.3062434 26.32488113 78.63451555 25 79 C25.495 77.515 25.495 77.515 26 76 C26.66 75.67 27.32 75.34 28 75 C27.34 75 26.68 75 26 75 C26 74.34 26 73.68 26 73 C25.01 73.495 25.01 73.495 24 74 C24 74.66 24 75.32 24 76 C23.01 75.67 22.02 75.34 21 75 C17.94729537 74.84188612 17.94729537 74.84188612 15 76 C14.54625 76.53625 14.0925 77.0725 13.625 77.625 C13.08875 78.07875 12.5525 78.5325 12 79 C3.73940825 78.2080755 -2.13549444 70.18288415 -7.24609375 64.2421875 C-14.97416785 54.36264511 -17.28180394 41.27909909 -16 29 C-13.78960827 17.80331332 -8.63896474 7.5918175 0 0 Z M17 76 C18.65 76 20.3 76 22 76 C22 76.33 22 76.66 22 77 C20.35 77 18.7 77 17 77 C17 76.67 17 76.34 17 76 Z " fill="#070041" transform="translate(17,20)"/>
<path d="M0 0 C2.475 0.495 2.475 0.495 5 1 C4.67 2.32 4.34 3.64 4 5 C5.32 4.34 6.64 3.68 8 3 C8.33 3.99 8.66 4.98 9 6 C9.99 6 10.98 6 12 6 C13 10.75 13 10.75 13 13 C13.99 12.67 14.98 12.34 16 12 C15.34 10.35 14.68 8.7 14 7 C14.33 6.67 14.66 6.34 15 6 C14.34 5.34 13.68 4.68 13 4 C14.75 3.3125 14.75 3.3125 17 3 C19.25 4.4375 19.25 4.4375 21 6 C21.66 5.01 22.32 4.02 23 3 C32.07422315 4.78760494 32.07422315 4.78760494 34.26171875 7.65234375 C35 9.5 35 9.5 36 13 C36.66 13.99 37.32 14.98 38 16 C39.32 15.34 40.64 14.68 42 14 C41.67 16.31 41.34 18.62 41 21 C41.33 20.34 41.66 19.68 42 19 C42.66 19 43.32 19 44 19 C44 18.34 44 17.68 44 17 C44.66 17 45.32 17 46 17 C45.505 18.485 45.505 18.485 45 20 C45.99 20.66 46.98 21.32 48 22 C47.01 22.33 46.02 22.66 45 23 C45.66 23.721875 46.32 24.44375 47 25.1875 C49.1535853 28.21597933 49.41176754 29.39703406 49 33 C48.34 33 47.68 33 47 33 C46.505 33.99 46.505 33.99 46 35 C45.01 34.505 45.01 34.505 44 34 C44 34.66 44 35.32 44 36 C42.68 36 41.36 36 40 36 C39.81630859 37.01126953 39.81630859 37.01126953 39.62890625 38.04296875 C38.88946431 41.51972372 37.92658815 44.89855058 36.9375 48.3125 C36.57527344 49.56675781 36.21304688 50.82101563 35.83984375 52.11328125 C35.56269531 53.06589844 35.28554687 54.01851562 35 55 C32.13367056 52.13367056 31.7684332 48.70683574 30.875 44.875 C30.69324219 44.12089844 30.51148438 43.36679687 30.32421875 42.58984375 C29.87645291 40.72808054 29.43739278 38.86422747 29 37 C27.35 37 25.7 37 24 37 C23.8453125 38.60875 23.8453125 38.60875 23.6875 40.25 C22.9900266 45.95287077 21.46923218 51.45572761 20 57 C19.34 57 18.68 57 18 57 C17.32595716 54.43923903 16.660586 51.87673417 16 49.3125 C15.80921875 48.59126953 15.6184375 47.87003906 15.421875 47.12695312 C15.24140625 46.42119141 15.0609375 45.71542969 14.875 44.98828125 C14.70742187 44.34415283 14.53984375 43.70002441 14.3671875 43.03637695 C14 41 14 41 14 36 C10.7 36 7.4 36 4 36 C3.1596543 32.63861721 2.82281358 30.29612199 4 27 C4.33 26.67 4.66 26.34 5 26 C3.31480498 25.058363 1.62671303 24.1219099 -0.0625 23.1875 C-1.0628125 22.63320313 -2.063125 22.07890625 -3.09375 21.5078125 C-5.42548581 20.29806785 -7.58666713 19.39127456 -10.0625 18.5625 C-13 17 -13 17 -14.4375 13.3125 C-14.623125 12.219375 -14.80875 11.12625 -15 10 C-14.34 9.67 -13.68 9.34 -13 9 C-11.96210419 7.35666496 -10.96432076 5.68756133 -10 4 C-9.34 3.01 -8.68 2.02 -8 1 C-5.36 1.66 -2.72 2.32 0 3 C0 2.01 0 1.02 0 0 Z M47 23 C47.99 23.495 47.99 23.495 49 24 C48.01 24.495 48.01 24.495 47 25 C47 24.34 47 23.68 47 23 Z " fill="#050043" transform="translate(63,3)"/>
<path d="M0 0 C0.89589844 0.37511719 1.79179688 0.75023437 2.71484375 1.13671875 C8.48856787 3.64737793 13.74863841 6.5321197 19 10 C18.34 10.33 17.68 10.66 17 11 C14.73079059 9.96069018 12.56802334 8.86925789 10.375 7.6875 C1.12892247 2.91082905 -7.72446779 0.10836163 -18.125 2.8125 C-20.89242261 6.04115971 -20.61821577 8.79813123 -20.42578125 12.94921875 C-19.37000777 20.513981 -16.41113013 26.85592589 -12 33 C-12 33.66 -12 34.32 -12 35 C-11.34 35 -10.68 35 -10 35 C-8.62751319 36.55315386 -7.32521299 38.16885684 -6.0625 39.8125 C-4.72035627 41.55101515 -3.36706732 43.28101435 -2 45 C-1.57976563 45.5878125 -1.15953125 46.175625 -0.7265625 46.78125 C2.10840578 48.78240408 5.33053047 48.57779511 8.6875 48.6875 C9.38939453 48.72166016 10.09128906 48.75582031 10.81445312 48.79101562 C12.54241387 48.87329947 14.27118072 48.9383324 16 49 C16.0270043 50.45823212 16.04639787 51.91660675 16.0625 53.375 C16.07410156 54.18710938 16.08570313 54.99921875 16.09765625 55.8359375 C16 58 16 58 15 60 C15.5878125 60.11730469 16.175625 60.23460937 16.78125 60.35546875 C19.1102625 61.03203048 20.53120023 61.91793349 22.5 63.3125 C30.08870331 68.17379225 38.94447332 71.20381009 48 70 C51.90973045 69.05876859 54.42979196 68.14136538 57 65 C56.73212125 68.92888829 56.47562903 70.54876221 53.5625 73.3125 C47.94446049 77.01218455 42.59998903 76.59936542 36 76 C17.32810842 71.51539304 -1.10587656 59.02925923 -13 44 C-13.99870527 42.89466213 -14.99870329 41.7904909 -16 40.6875 C-23.98288126 31.27453039 -30.95719133 19.95797673 -30.390625 7.23046875 C-29.77981875 3.74276505 -28.34179325 1.6019925 -26 -1 C-18.54015142 -5.83477937 -7.63501642 -3.33285065 0 0 Z " fill="#E65724" transform="translate(50,19)"/>
<path d="M0 0 C3.3 0 6.6 0 10 0 C10.67218507 2.74875682 11.33792435 5.49880726 12 8.25 C12.19078125 9.02730469 12.3815625 9.80460937 12.578125 10.60546875 C12.75859375 11.35957031 12.9390625 12.11367188 13.125 12.890625 C13.29257813 13.58188477 13.46015625 14.27314453 13.6328125 14.98535156 C14 17 14 17 14 21 C14.66 21 15.32 21 16 21 C16.103125 19.741875 16.20625 18.48375 16.3125 17.1875 C16.91590491 11.6148782 18.40690933 6.36039942 20 1 C21.65 1 23.3 1 25 1 C26.65 6.28 28.3 11.56 30 17 C30.61875 15.123125 31.2375 13.24625 31.875 11.3125 C33.13639242 7.48627631 34.46554372 3.72554925 36 0 C39.3 0 42.6 0 46 0 C45.77860352 0.65895264 45.55720703 1.31790527 45.32910156 1.99682617 C39.8012276 18.38294263 39.8012276 18.38294263 34.69140625 34.90234375 C34 37 34 37 33 38 C31.33382885 38.04063832 29.66611905 38.042721 28 38 C27.65066406 37.07316406 27.30132812 36.14632812 26.94140625 35.19140625 C26.25884766 33.39509766 26.25884766 33.39509766 25.5625 31.5625 C25.11003906 30.36753906 24.65757813 29.17257813 24.19140625 27.94140625 C23.2855174 25.15554277 23.2855174 25.15554277 22 24 C21.70996094 24.99580078 21.70996094 24.99580078 21.4140625 26.01171875 C18.82776801 34.78207381 18.82776801 34.78207381 17 39 C15.35 39 13.7 39 12 39 C9.68035335 33.13984005 7.77145968 27.17797325 5.91845703 21.1574707 C4.28223412 15.85306146 2.52830511 10.59692176 0.69921875 5.35546875 C0 3 0 3 0 0 Z " fill="#EA5823" transform="translate(67,39)"/>
<path d="M0 0 C-0.99 1.32 -1.98 2.64 -3 4 C-4.32 3.01 -5.64 2.02 -7 1 C-7.66 1.33 -8.32 1.66 -9 2 C-8.7215625 2.928125 -8.7215625 2.928125 -8.4375 3.875 C-8 6 -8 6 -9 8 C-8.34 8.33 -7.68 8.66 -7 9 C-8.65 9.99 -10.3 10.98 -12 12 C-12 11.01 -12 10.02 -12 9 C-12.495 7.515 -12.495 7.515 -13 6 C-12.34 6 -11.68 6 -11 6 C-11.66 5.01 -12.32 4.02 -13 3 C-13.99 3 -14.98 3 -16 3 C-16 2.01 -16 1.02 -16 0 C-16.66 0 -17.32 0 -18 0 C-18.33 0.99 -18.66 1.98 -19 3 C-19.66 2.34 -20.32 1.68 -21 1 C-20.67 0.01 -20.34 -0.98 -20 -2 C-21.32 -2.33 -22.64 -2.66 -24 -3 C-23.505 -1.515 -23.505 -1.515 -23 0 C-26.20062687 1.60031344 -28.72271806 0.03173691 -32 -1 C-32 -0.01 -32 0.98 -32 2 C-32.66 2 -33.32 2 -34 2 C-34.309375 2.969375 -34.61875 3.93875 -34.9375 4.9375 C-36 8 -36 8 -37 9 C-36.59070014 11.05396726 -36.59070014 11.05396726 -36 13 C-36.57105469 12.855625 -37.14210937 12.71125 -37.73046875 12.5625 C-45.26290189 10.8380638 -54.51641714 8.93894706 -61.76171875 12.26953125 C-64.76113171 14.58844912 -65.72436838 16.42454767 -66.37109375 20.12109375 C-66.80183761 35.14645312 -57.55864189 48.53272684 -47.75390625 59.21484375 C-36.91445246 70.24742812 -24.09204821 78.75229389 -10 85 C-9.20078125 85.3609375 -8.4015625 85.721875 -7.578125 86.09375 C0.46052199 89.26226779 10.03125745 89.34984443 18 86 C19.89942124 83.50447863 19.89942124 83.50447863 21 81 C21.66 81.33 22.32 81.66 23 82 C19.90968855 86.96657197 17.61351507 90.12882831 12 92 C-6.23597852 93.48121796 -22.56844366 85.76863901 -36.4609375 74.34765625 C-37.32815528 73.58829043 -38.18492235 72.81507765 -39 72 C-40.68183948 71.76712992 -42.3712416 71.58735834 -44.0625 71.4375 C-45.44115234 71.31181641 -45.44115234 71.31181641 -46.84765625 71.18359375 C-47.55792969 71.12300781 -48.26820312 71.06242187 -49 71 C-48.4740625 69.5459375 -48.4740625 69.5459375 -47.9375 68.0625 C-47.54217553 66.09206116 -47.54217553 66.09206116 -48 64 C-49.99237682 61.47572167 -52.21968397 59.41796861 -54.5859375 57.2421875 C-62.75647226 49.65337366 -69.97060901 37.64955804 -71.30078125 26.47265625 C-71.32754316 20.96862304 -70.98531232 16.79459252 -68 12 C-52.73845402 -3.19590492 -19.40940342 -11.05128712 0 0 Z " fill="#030044" transform="translate(87,6)"/>
<path d="M0 0 C5.61 0.33 11.22 0.66 17 1 C17.125 9.75 17.125 9.75 16 12 C16.5878125 12.11730469 17.175625 12.23460938 17.78125 12.35546875 C20.1102625 13.03203048 21.53120023 13.91793349 23.5 15.3125 C31.08870331 20.17379225 39.94447332 23.20381009 49 22 C52.90973045 21.05876859 55.42979196 20.14136538 58 17 C57.73212125 20.92888829 57.47562903 22.54876221 54.5625 25.3125 C48.94446049 29.01218455 43.59998903 28.59936542 37 28 C26.78566227 25.54672472 17.79897401 20.56735083 9 15 C8.04996094 14.40960938 7.09992187 13.81921875 6.12109375 13.2109375 C5.29738281 12.64632812 4.47367188 12.08171875 3.625 11.5 C2.91601562 11.0153125 2.20703125 10.530625 1.4765625 10.03125 C0 8 0 8 0 0 Z " fill="#DB5424" transform="translate(49,67)"/>
<path d="M0 0 C8.58 0 17.16 0 26 0 C24.53001665 4.40995005 23.10958685 7.94507637 21 12 C20.3897998 13.21507986 19.78181301 14.43127323 19.17578125 15.6484375 C17.45052083 19.09895833 15.72526042 22.54947917 14 26 C13.01 25.67 12.02 25.34 11 25 C11 24.34 11 23.68 11 23 C10.01 22.67 9.02 22.34 8 22 C8.59104765 17.15340923 9.97944157 13.39251833 12 9 C8.04 9 4.08 9 0 9 C0 6.03 0 3.06 0 0 Z " fill="#F05D20" transform="translate(39,39)"/>
<path d="M0 0 C1.32 0.66 2.64 1.32 4 2 C2.27473958 2.87890625 0.54947917 3.7578125 -1.17578125 4.63671875 C-4.38401587 7.03430736 -5.7875133 9.77997222 -6.46875 13.69140625 C-6.65693757 30.98113915 4.39204573 44.30001549 15.8125 56.3125 C29.85627459 69.63952693 48.38435556 82.38430831 68.3125 83.375 C72.95596963 82.90278275 77.14219893 82.15373399 80.32421875 78.46484375 C81.57586188 76.65806774 81.57586188 76.65806774 83 74 C83.66 74.33 84.32 74.66 85 75 C81.90968855 79.96657197 79.61351507 83.12882831 74 85 C55.76402148 86.48121796 39.43155634 78.76863901 25.5390625 67.34765625 C24.67184472 66.58829043 23.81507765 65.81507765 23 65 C21.31816052 64.76712992 19.6287584 64.58735834 17.9375 64.4375 C16.55884766 64.31181641 16.55884766 64.31181641 15.15234375 64.18359375 C14.44207031 64.12300781 13.73179688 64.06242187 13 64 C13.5259375 62.5459375 13.5259375 62.5459375 14.0625 61.0625 C14.45782447 59.09206116 14.45782447 59.09206116 14 57 C12.00762318 54.47572167 9.78031603 52.41796861 7.4140625 50.2421875 C-0.75647226 42.65337366 -7.97060901 30.64955804 -9.30078125 19.47265625 C-9.32751485 13.97444563 -8.85827914 9.85907453 -6 5 C-4.09988222 3.09504731 -2.18187134 1.60003898 0 0 Z " fill="#C54B2C" transform="translate(25,13)"/>
<path d="M0 0 C0.99 0 1.98 0 3 0 C2.67 0.99 2.34 1.98 2 3 C0.20378636 16.29198095 7.31567166 27.75422888 15 38 C26.17650875 52.25126879 41.56508662 62.7135852 58 70 C58.79921875 70.3609375 59.5984375 70.721875 60.421875 71.09375 C67.66574308 73.94899727 76.53362982 74.24171889 84 72 C84 72.66 84 73.32 84 74 C74.10412745 77.95834902 64.69510421 75.4816947 55 72 C32.66344375 62.20237419 10.71225462 42.35946274 0.5 20 C-1.82750831 13.67368887 -2.13629782 6.40889345 0 0 Z " fill="#180A3D" transform="translate(19,21)"/>
<path d="M0 0 C1.85546875 0.12890625 1.85546875 0.12890625 4 1 C5.30078125 3.65234375 5.30078125 3.65234375 6.3125 6.9375 C6.65925781 8.01902344 7.00601563 9.10054687 7.36328125 10.21484375 C8 13 8 13 7 15 C5.01753602 16.03432904 3.01586684 17.03238392 1 18 C0.01 18.66 -0.98 19.32 -2 20 C-4.1875 19.625 -4.1875 19.625 -6 19 C-6.33 20.65 -6.66 22.3 -7 24 C-7.804375 24.12375 -8.60875 24.2475 -9.4375 24.375 C-10.283125 24.58125 -11.12875 24.7875 -12 25 C-12.33 25.66 -12.66 26.32 -13 27 C-15.31 24.69 -17.62 22.38 -20 20 C-19.01 19.01 -18.02 18.02 -17 17 C-16.67 17.99 -16.34 18.98 -16 20 C-14.62485459 21.7087646 -14.62485459 21.7087646 -13 23 C-12.34 23 -11.68 23 -11 23 C-10.37237545 21.77217138 -9.74803935 20.54266164 -9.125 19.3125 C-8.77695312 18.62800781 -8.42890625 17.94351563 -8.0703125 17.23828125 C-7.33678194 15.70429217 -6.65924976 14.14262844 -6.03125 12.5625 C-4.94269492 9.85760556 -3.69255682 7.28794109 -2.375 4.6875 C-1.92898437 3.80449219 -1.48296875 2.92148437 -1.0234375 2.01171875 C-0.68570313 1.34785156 -0.34796875 0.68398438 0 0 Z " fill="#050145" transform="translate(64,41)"/>
<path d="M0 0 C1.47023232 0.57460456 2.92829996 1.18098398 4.375 1.8125 C5.27089844 2.18761719 6.16679688 2.56273437 7.08984375 2.94921875 C12.86356787 5.45987793 18.12363841 8.3446197 23.375 11.8125 C22.715 12.1425 22.055 12.4725 21.375 12.8125 C19.10579059 11.77319018 16.94302334 10.68175789 14.75 9.5 C5.55311439 4.74874238 -3.33809682 1.87923997 -13.6875 4.625 C-16.9661506 8.32670229 -16.53566968 13.02926717 -16.625 17.8125 C-17.223125 17.6475 -17.82125 17.4825 -18.4375 17.3125 C-20.73844336 16.7010876 -20.73844336 16.7010876 -23.625 16.8125 C-23.25 14.375 -23.25 14.375 -22.625 11.8125 C-21.965 11.4825 -21.305 11.1525 -20.625 10.8125 C-21.285 10.1525 -21.945 9.4925 -22.625 8.8125 C-21.965 8.1525 -21.305 7.4925 -20.625 6.8125 C-21.615 5.8225 -22.605 4.8325 -23.625 3.8125 C-17.237858 -2.78754673 -8.67539883 -2.78683411 0 0 Z " fill="#E15B24" transform="translate(45.625,17.1875)"/>
<path d="M0 0 C5.61 0.33 11.22 0.66 17 1 C17 6 17 11 17 16 C16.67 15.34 16.34 14.68 16 14 C15.01 14 14.02 14 13 14 C13 14.66 13 15.32 13 16 C9.59229964 14.93509364 6.66071997 13.31841909 3.6875 11.375 C2.99011719 10.92898437 2.29273438 10.48296875 1.57421875 10.0234375 C0 8 0 8 0 0 Z " fill="#ED5B22" transform="translate(49,67)"/>
<path d="M0 0 C0.40427284 5.39030459 -0.99155941 9.13269802 -3 14 C-3.56753975 15.49810042 -4.13023798 16.99804618 -4.6875 18.5 C-5.120625 19.655 -5.55375 20.81 -6 22 C-7.65 22 -9.3 22 -11 22 C-14.62415409 12.60176991 -14.62415409 12.60176991 -13 8 C-12.67 7.01 -12.34 6.02 -12 5 C-12.99 4.67 -13.98 4.34 -15 4 C-13.68 3.01 -12.36 2.02 -11 1 C-10.34 2.65 -9.68 4.3 -9 6 C-8.01 6 -7.02 6 -6 6 C-6 5.34 -6 4.68 -6 4 C-5.67 3.67 -5.34 3.34 -5 3 C-5.33 2.01 -5.66 1.02 -6 0 C-3 -1 -3 -1 0 0 Z " fill="#EF5C22" transform="translate(106,55)"/>
<path d="M0 0 C1.36893239 0.05270463 1.36893239 0.05270463 4 -1 C4 -0.34 4 0.32 4 1 C4.99 0.67 5.98 0.34 7 0 C7.33 0.66 7.66 1.32 8 2 C7.01 2.33 6.02 2.66 5 3 C5.99 3.33 6.98 3.66 8 4 C8.66 4.66 9.32 5.32 10 6 C9.67 6.66 9.34 7.32 9 8 C8.34 8 7.68 8 7 8 C6.67 8.99 6.34 9.98 6 11 C7.093125 11.309375 8.18625 11.61875 9.3125 11.9375 C11.55407994 12.58337897 13.7869351 13.2623117 16 14 C7.33942141 16.36197598 -0.69185897 12.42247533 -8.25 8.25 C-9.50624514 7.51050818 -10.75893595 6.76469603 -12 6 C-11.360625 5.731875 -10.72125 5.46375 -10.0625 5.1875 C-7.66868314 4.11332248 -7.66868314 4.11332248 -7 1 C-4.05697101 -0.96201933 -3.48011144 -1.16003715 0 0 Z M-5 2 C-5 2.33 -5 2.66 -5 3 C-3.35 3 -1.7 3 0 3 C0 2.67 0 2.34 0 2 C-1.65 2 -3.3 2 -5 2 Z " fill="#0B0648" transform="translate(39,94)"/>
<path d="M0 0 C1.7866789 2.68001835 2.9322137 5.03128744 4.125 8 C4.65480469 9.299375 4.65480469 9.299375 5.1953125 10.625 C6 13 6 13 6 16 C8.43717258 15.72965366 8.43717258 15.72965366 11 15 C11.66 14.01 12.32 13.02 13 12 C12.67 13.65 12.34 15.3 12 17 C10.27192682 17.33895656 8.54248026 17.67091525 6.8125 18 C5.84957031 18.185625 4.88664062 18.37125 3.89453125 18.5625 C1.2065794 18.96877612 -1.28771019 19.07933572 -4 19 C-4.69159401 20.84725052 -4.69159401 20.84725052 -5 23 C-4.34 23.99 -3.68 24.98 -3 26 C-6.20062687 27.60031344 -8.72271806 26.03173691 -12 25 C-12.33 23.02 -12.66 21.04 -13 19 C-12.4225 19.2475 -11.845 19.495 -11.25 19.75 C-8.89751355 20.25155765 -8.89751355 20.25155765 -6.875 18.625 C-4.65682574 15.51955604 -4.1841538 13.0296522 -3.50390625 9.328125 C-2.77781085 5.97345169 -1.45203585 3.1020766 0 0 Z M-7 23 C-6 25 -6 25 -6 25 Z " fill="#0A023C" transform="translate(89,61)"/>
<path d="M0 0 C0.33 0 0.66 0 1 0 C1.103125 0.94875 1.20625 1.8975 1.3125 2.875 C1.68539295 6.29107501 1.68539295 6.29107501 5 8 C6.32 6.02 7.64 4.04 9 2 C9.66 3.32 10.32 4.64 11 6 C3.21120226 16.39450462 -8.47769284 24.39854307 -21 28 C-21.66 27.67 -22.32 27.34 -23 27 C-22.67 25.68 -22.34 24.36 -22 23 C-21.34 23 -20.68 23 -20 23 C-20 22.34 -20 21.68 -20 21 C-18.68 21 -17.36 21 -16 21 C-16.33 20.34 -16.66 19.68 -17 19 C-15.78763672 18.85304688 -15.78763672 18.85304688 -14.55078125 18.703125 C-6.41271694 17.73818307 -6.41271694 17.73818307 0 13 C1.31165257 10.88339573 1.31165257 10.88339573 2 9 C1.67 9.33 1.34 9.66 1 10 C-0.66666667 11.66666667 -2.33333333 13.33333333 -4 15 C-3.690625 14.46375 -3.38125 13.9275 -3.0625 13.375 C-1.81246924 10.58081361 -1.43215164 8.02506151 -1 5 C-0.67364302 3.33195323 -0.34274406 1.66475686 0 0 Z " fill="#13083F" transform="translate(107,79)"/>
<path d="M0 0 C12.125 0 12.125 0 16 1 C16 0.67 16 0.34 16 0 C17.65 0 19.3 0 21 0 C21 0.99 21 1.98 21 3 C20.34 3 19.68 3 19 3 C19.33 4.65 19.66 6.3 20 8 C19.01 7.67 18.02 7.34 17 7 C17 6.01 17 5.02 17 4 C15.68 3.67 14.36 3.34 13 3 C13.27617533 4.94074861 13.27617533 4.94074861 14 7 C14.99 7.66 15.98 8.32 17 9 C16.34 10.65 15.68 12.3 15 14 C13.68 13.67 12.36 13.34 11 13 C11 11.35 11 9.7 11 8 C7.37 8 3.74 8 0 8 C0 5.36 0 2.72 0 0 Z " fill="#F1661B" transform="translate(40,40)"/>
<path d="M0 0 C6.28452363 6.5701838 5.18625651 16.6126522 5.0703125 25.03515625 C5.03550781 26.50275391 5.03550781 26.50275391 5 28 C4.34 26.68 3.68 25.36 3 24 C2.67 24.66 2.34 25.32 2 26 C0.125 25.6875 0.125 25.6875 -2 25 C-2.66 24.01 -3.32 23.02 -4 22 C-2.68 21.67 -1.36 21.34 0 21 C-0.185625 20.38125 -0.37125 19.7625 -0.5625 19.125 C-1 17 -1 17 0 15 C-0.66 14.67 -1.32 14.34 -2 14 C-2 13.34 -2 12.68 -2 12 C-1.34 12 -0.68 12 0 12 C0 11.34 0 10.68 0 10 C-0.66 10 -1.32 10 -2 10 C-1.835 9.236875 -1.67 8.47375 -1.5 7.6875 C-0.90854604 4.96403764 -0.90854604 4.96403764 -1 2 C-0.67 1.34 -0.34 0.68 0 0 Z M-2 22 C-1.67 22.66 -1.34 23.32 -1 24 C-0.67 23.34 -0.34 22.68 0 22 C-0.66 22 -1.32 22 -2 22 Z M-3 14 C-2.67 14.66 -2.34 15.32 -2 16 C-2.66 15.67 -3.32 15.34 -4 15 C-3.67 14.67 -3.34 14.34 -3 14 Z M-6 16 C-5.01 16.495 -5.01 16.495 -4 17 C-4 17.66 -4 18.32 -4 19 C-4.66 19 -5.32 19 -6 19 C-6 18.01 -6 17.02 -6 16 Z " fill="#100C4B" transform="translate(122,36)"/>
<path d="M0 0 C0.66 0.99 1.32 1.98 2 3 C2.66 3.33 3.32 3.66 4 4 C4.33 4.99 4.66 5.98 5 7 C4.01 7 3.02 7 2 7 C1.67 7.66 1.34 8.32 1 9 C0.01 9.33 -0.98 9.66 -2 10 C-1.125 2.25 -1.125 2.25 0 0 Z M5 1 C9.26826873 1 9.93882432 1.37613513 13 4 C12.34 4.66 11.68 5.32 11 6 C11.99 6.33 12.98 6.66 14 7 C14.33 6.67 14.66 6.34 15 6 C15.99 6 16.98 6 18 6 C17.67 7.65 17.34 9.3 17 11 C15.68 11.33 14.36 11.66 13 12 C14.05270463 13.15811388 14.05270463 13.15811388 16 14 C15.34 16.31 14.68 18.62 14 21 C13.34 20.67 12.68 20.34 12 20 C12 18.68 12 17.36 12 16 C11.01 15.67 10.02 15.34 9 15 C9 14.01 9 13.02 9 12 C7.56249809 10.31201173 7.56249809 10.31201173 6 9 C6.99 8.34 7.98 7.68 9 7 C7.68 6.34 6.36 5.68 5 5 C5 3.66666667 5 2.33333333 5 1 Z M5 11 C5.99 11.495 5.99 11.495 7 12 C6.01 12.495 6.01 12.495 5 13 C5 12.34 5 11.68 5 11 Z " fill="#05003A" transform="translate(104,63)"/>
<path d="M0 0 C2 1 2 1 2 1 Z M-2 1 C0.64 1.33 3.28 1.66 6 2 C6 3.32 6 4.64 6 6 C7.72226496 9.24849977 7.72226496 9.24849977 11 10 C10.34 10 9.68 10 9 10 C9 10.66 9 11.32 9 12 C8.34 12 7.68 12 7 12 C7 12.66 7 13.32 7 14 C7.66 14 8.32 14 9 14 C8.67 14.66 8.34 15.32 8 16 C5.9375 16.625 5.9375 16.625 4 17 C3.67 15.35 3.34 13.7 3 12 C2.67 12 2.34 12 2 12 C0.68 12 -0.64 12 -2 12 C-2.33 12.66 -2.66 13.32 -3 14 C-3.99 13.34 -4.98 12.68 -6 12 C-6 12.66 -6 13.32 -6 14 C-7.32 14 -8.64 14 -10 14 C-10.33 14.66 -10.66 15.32 -11 16 C-11 15.01 -11 14.02 -11 13 C-8.8125 11.5 -8.8125 11.5 -6 10 C-5.071875 9.443125 -4.14375 8.88625 -3.1875 8.3125 C-2.465625 7.879375 -1.74375 7.44625 -1 7 C-1.165 6.38125 -1.33 5.7625 -1.5 5.125 C-2 3 -2 3 -2 1 Z " fill="#01004A" transform="translate(45,78)"/>
<path d="M0 0 C1.99954746 -0.04254356 4.00041636 -0.04080783 6 0 C6.33 0.33 6.66 0.66 7 1 C7.66 1.33 8.32 1.66 9 2 C8.26309887 8.48472993 6.64681249 14.69239743 5 21 C4.34 21 3.68 21 3 21 C2.29921555 18.44048255 1.61414804 15.87840298 0.9375 13.3125 C0.73833984 12.59126953 0.53917969 11.87003906 0.33398438 11.12695312 C-0.72033808 7.07613527 -1.29133534 4.1176542 0 0 Z " fill="#0C0440" transform="translate(78,39)"/>
<path d="M0 0 C0.66 0.66 1.32 1.32 2 2 C1.67 2.33 1.34 2.66 1 3 C1.94875 3.12375 2.8975 3.2475 3.875 3.375 C8.14132429 4.22826486 9.9833329 6.9833329 13 10 C6.88019467 11.40454548 1.28260706 12.23268915 -5 12 C-4.34 11.01 -3.68 10.02 -3 9 C-3.33 8.01 -3.66 7.02 -4 6 C-3.34 6 -2.68 6 -2 6 C-2.33 5.01 -2.66 4.02 -3 3 C-2.01 2.01 -1.02 1.02 0 0 Z " fill="#060047" transform="translate(69,98)"/>
<path d="M0 0 C1.32 0.99 2.64 1.98 4 3 C2.68 3.99 1.36 4.98 0 6 C0.99 6 1.98 6 3 6 C3.33 6.66 3.66 7.32 4 8 C4.99 8 5.98 8 7 8 C7.99 8 8.98 8 10 8 C10 8.66 10 9.32 10 10 C9.34 10 8.68 10 8 10 C8 10.66 8 11.32 8 12 C7.34 12 6.68 12 6 12 C4.9254644 13.7763932 4.9254644 13.7763932 5 15 C5.99 15.33 6.98 15.66 8 16 C7.34 16 6.68 16 6 16 C6 16.99 6 17.98 6 19 C6.66 19.33 7.32 19.66 8 20 C7.01 20.99 6.02 21.98 5 23 C-2.84054172 9.53342071 -2.84054172 9.53342071 -1 1 C-0.67 0.67 -0.34 0.34 0 0 Z " fill="#02014B" transform="translate(4,60)"/>
<path d="M0 0 C1.32 0.66 2.64 1.32 4 2 C3.01 3.485 3.01 3.485 2 5 C2.66 5.66 3.32 6.32 4 7 C3.01 7.33 2.02 7.66 1 8 C1 9.65 1 11.3 1 13 C2.65 12.67 4.3 12.34 6 12 C7.125 17.625 7.125 17.625 6 21 C5.01 21 4.02 21 3 21 C3 20.34 3 19.68 3 19 C2.01 19 1.02 19 0 19 C-2.20440155 13.76454631 -2.65684458 8.61215735 -2 3 C-1.34 2.01 -0.68 1.02 0 0 Z " fill="#F35E1E" transform="translate(22,21)"/>
<path d="M0 0 C-1.2491742 3.45925163 -2.67527795 6.14693203 -5 9 C-4.34 9.66 -3.68 10.32 -3 11 C-3.33 11.99 -3.66 12.98 -4 14 C-4.99 14.33 -5.98 14.66 -7 15 C-7.33 14.67 -7.66 14.34 -8 14 C-8 14.66 -8 15.32 -8 16 C-7.34 16.33 -6.68 16.66 -6 17 C-5.67 17.66 -5.34 18.32 -5 19 C-7.97 19 -10.94 19 -14 19 C-12.68 18.34 -11.36 17.68 -10 17 C-10.33 16.4225 -10.66 15.845 -11 15.25 C-12 13 -12 13 -12 9 C-11.360625 8.7525 -10.72125 8.505 -10.0625 8.25 C-7.81523431 7.21635115 -7.81523431 7.21635115 -7.5 5.0625 C-7.335 4.381875 -7.17 3.70125 -7 3 C-4.44549506 0.61579539 -3.5595477 0 0 0 Z " fill="#0B084E" transform="translate(68,91)"/>
<path d="M0 0 C0.33 0.99 0.66 1.98 1 3 C1.66 2.67 2.32 2.34 3 2 C3.33 2.99 3.66 3.98 4 5 C4.66 4.01 5.32 3.02 6 2 C6 4.31 6 6.62 6 9 C6.66 9.33 7.32 9.66 8 10 C7.34 10.66 6.68 11.32 6 12 C5.34 11.67 4.68 11.34 4 11 C3.67 11.66 3.34 12.32 3 13 C2.67 10.69 2.34 8.38 2 6 C1.01 6.66 0.02 7.32 -1 8 C-0.34 8.33 0.32 8.66 1 9 C0.25 13.75 0.25 13.75 -2 16 C-3.20628008 13.66785852 -4.1654738 11.50357861 -5 9 C-4.34 9 -3.68 9 -3 9 C-3 8.34 -3 7.68 -3 7 C-3.99 6.34 -4.98 5.68 -6 5 C-6 3.68 -6 2.36 -6 1 C-3.92446352 0.4465236 -2.15634036 0 0 0 Z " fill="#EE5820" transform="translate(93,51)"/>
<path d="M0 0 C2.8203125 0.0234375 2.8203125 0.0234375 6.125 0.375 C7.22070312 0.48585938 8.31640625 0.59671875 9.4453125 0.7109375 C10.28835937 0.80632812 11.13140625 0.90171875 12 1 C12 3.97 12 6.94 12 10 C7.2047363 10 6.32445916 9.01007087 2.75 6 C1.85796875 5.2575 0.9659375 4.515 0.046875 3.75 C-0.62859375 3.1725 -1.3040625 2.595 -2 2 C-1.34 1.34 -0.68 0.68 0 0 Z " fill="#471938" transform="translate(54,67)"/>
<path d="M0 0 C0.99 0 1.98 0 3 0 C2.67 0.99 2.34 1.98 2 3 C0.45046898 14.46652956 5.66374729 24.76717462 12 34 C9.57798539 33.62540876 8.32022007 33.35652409 6.65625 31.50390625 C1.02759409 22.05308872 -2.03847182 14.18485222 -1 3 C-0.67 2.01 -0.34 1.02 0 0 Z " fill="#351638" transform="translate(19,21)"/>
<path d="M0 0 C2.90816761 4.36225141 4.26466826 6.94260622 4.125 12.25 C4.10695313 13.14203125 4.08890625 14.0340625 4.0703125 14.953125 C4.03550781 15.96632813 4.03550781 15.96632813 4 17 C-1.875 16.125 -1.875 16.125 -3 15 C-3.41257648 9.01764103 -2.67401588 5.34803176 0 0 Z M0 13 C0.33 13.66 0.66 14.32 1 15 C1.33 14.34 1.66 13.68 2 13 C1.34 13 0.68 13 0 13 Z " fill="#080146" transform="translate(89,61)"/>
<path d="M0 0 C0.66 0 1.32 0 2 0 C2.28875 0.61875 2.5775 1.2375 2.875 1.875 C3.93720042 4.13325765 3.93720042 4.13325765 6 6 C5.9765625 8.6015625 5.9765625 8.6015625 5.625 11.625 C5.51414062 12.62789062 5.40328125 13.63078125 5.2890625 14.6640625 C5.19367187 15.43492188 5.09828125 16.20578125 5 17 C4.401875 16.835 3.80375 16.67 3.1875 16.5 C0.88655664 15.8885876 0.88655664 15.8885876 -2 16 C-1.625 13.5625 -1.625 13.5625 -1 11 C-0.34 10.67 0.32 10.34 1 10 C0.34 9.34 -0.32 8.68 -1 8 C-0.34 7.34 0.32 6.68 1 6 C0.01 5.01 -0.98 4.02 -2 3 C-1.34 2.01 -0.68 1.02 0 0 Z " fill="#ED5522" transform="translate(24,18)"/>
<path d="M0 0 C1.65 0 3.3 0 5 0 C4.49487476 6.22987798 1.67395877 11.45474233 -1 17 C-3 14 -3 14 -3 13 C-3.66 12.34 -4.32 11.68 -5 11 C-4.67 10.01 -4.34 9.02 -4 8 C-3.01 8 -2.02 8 -1 8 C-0.40267181 5.23735711 0 2.83967231 0 0 Z " fill="#0D0B4E" transform="translate(121,65)"/>
<path d="M0 0 C-0.8125 2.4375 -0.8125 2.4375 -2 5 C-2.99 5.33 -3.98 5.66 -5 6 C-5 6.66 -5 7.32 -5 8 C-4.34 8.33 -3.68 8.66 -3 9 C-3.58007812 9.09796875 -4.16015625 9.1959375 -4.7578125 9.296875 C-10.09646432 10.31879515 -13.68885232 11.68373256 -18 15 C-16.54536165 11.60584384 -14.67724328 9.51975838 -12 7 C-11.38125 6.319375 -10.7625 5.63875 -10.125 4.9375 C-7.26447963 2.32937849 -3.98192076 0 0 0 Z " fill="#160E4B" transform="translate(38,7)"/>
<path d="M0 0 C1.65 1.65 3.3 3.3 5 5 C4 7 4 7 2 8 C1.0409375 8.7425 1.0409375 8.7425 0.0625 9.5 C-2 11 -2 11 -5 12 C-6.32 10.02 -7.64 8.04 -9 6 C-7.35 5.34 -5.7 4.68 -4 4 C-3.67 4.99 -3.34 5.98 -3 7 C-2.67 6.01 -2.34 5.02 -2 4 C-2.33 3.34 -2.66 2.68 -3 2 C-2.01 1.34 -1.02 0.68 0 0 Z " fill="#010049" transform="translate(89,30)"/>
<path d="M0 0 C0.99 0.66 1.98 1.32 3 2 C3.99 1.67 4.98 1.34 6 1 C5.09255778 4.78260126 4.01058149 8.51152256 2.9375 12.25 C2.57527344 13.51328125 2.21304688 14.7765625 1.83984375 16.078125 C1.56269531 17.04234375 1.28554687 18.0065625 1 19 C-1.60691842 16.39308158 -1.70416963 14.62392206 -2 11 C-1.34 10.01 -0.68 9.02 0 8 C-0.33 7.01 -0.66 6.02 -1 5 C-0.5625 2.3125 -0.5625 2.3125 0 0 Z " fill="#11053B" transform="translate(97,39)"/>
<path d="M0 0 C1.33333333 0.66666667 2.66666667 1.33333333 4 2 C4.625 5.0625 4.625 5.0625 5 8 C4.67 7.34 4.34 6.68 4 6 C3.34 6 2.68 6 2 6 C1.67 6.99 1.34 7.98 1 9 C0.67 8.34 0.34 7.68 0 7 C-0.99 7.33 -1.98 7.66 -3 8 C-3 7.34 -3 6.68 -3 6 C-4.65 6.33 -6.3 6.66 -8 7 C-8.66 5.02 -9.32 3.04 -10 1 C-8.515 1.99 -8.515 1.99 -7 3 C-6.01 3 -5.02 3 -4 3 C-3.67 2.34 -3.34 1.68 -3 1 C-2.01 0.67 -1.02 0.34 0 0 Z " fill="#E0532A" transform="translate(83,59)"/>
<path d="M0 0 C0.99 0 1.98 0 3 0 C3.33 2.97 3.66 5.94 4 9 C2.68 9.33 1.36 9.66 0 10 C-0.99 10.495 -0.99 10.495 -2 11 C-3.5625 8.1875 -3.5625 8.1875 -5 5 C-4.67 4.01 -4.34 3.02 -4 2 C-2.68 2 -1.36 2 0 2 C0 1.34 0 0.68 0 0 Z " fill="#EF5B1E" transform="translate(77,53)"/>
<path d="M0 0 C3.3 0 6.6 0 10 0 C9.01 2.31 8.02 4.62 7 7 C6.34 7 5.68 7 5 7 C4.34 6.34 3.68 5.68 3 5 C2.34 6.32 1.68 7.64 1 9 C0.01 8.67 -0.98 8.34 -2 8 C-1.33333333 5.33333333 -0.66666667 2.66666667 0 0 Z " fill="#D24F28" transform="translate(103,39)"/>
<path d="M0 0 C0.33 1.32 0.66 2.64 1 4 C2.97536745 3.65213292 2.97536745 3.65213292 5 3 C5.33 2.34 5.66 1.68 6 1 C8 2 8 2 9 4 C6.40328865 6.87493042 4.81413571 8.33667205 1 9 C-0.58211573 9.06548492 -2.16670081 9.08578381 -3.75 9.0625 C-4.54921875 9.05347656 -5.3484375 9.04445313 -6.171875 9.03515625 C-6.77515625 9.02355469 -7.3784375 9.01195313 -8 9 C-5.61426621 7.10786631 -3.92824652 5.97608217 -1 5 C-1 4.01 -1 3.02 -1 2 C-0.67 1.34 -0.34 0.68 0 0 Z " fill="#13073B" transform="translate(97,81)"/>
<path d="M0 0 C1.32 0.33 2.64 0.66 4 1 C4 0.67 4 0.34 4 0 C5.65 0 7.3 0 9 0 C9 0.99 9 1.98 9 3 C8.34 3 7.68 3 7 3 C7.33 4.65 7.66 6.3 8 8 C7.01 7.67 6.02 7.34 5 7 C5 6.01 5 5.02 5 4 C3.68 3.67 2.36 3.34 1 3 C1.27617533 4.94074861 1.27617533 4.94074861 2 7 C2.99 7.66 3.98 8.32 5 9 C4.34 10.65 3.68 12.3 3 14 C1.68 13.67 0.36 13.34 -1 13 C-0.67 10.36 -0.34 7.72 0 5 C-0.99 4.67 -1.98 4.34 -3 4 C-2.01 4 -1.02 4 0 4 C0 2.68 0 1.36 0 0 Z " fill="#F95918" transform="translate(52,40)"/>
<path d="M0 0 C1.32 0.66 2.64 1.32 4 2 C1.35883012 5.61938095 -0.97413046 7.98706523 -5 10 C-5.66 10 -6.32 10 -7 10 C-7.33 11.32 -7.66 12.64 -8 14 C-8.33 14 -8.66 14 -9 14 C-9.36538462 8.51923077 -9.36538462 8.51923077 -7.8125 6.3125 C-6 5 -6 5 -3.375 3.4375 C-0.88809625 2.22087094 -0.88809625 2.22087094 0 0 Z " fill="#05003E" transform="translate(11,38)"/>
<path d="M0 0 C0.66 0.66 1.32 1.32 2 2 C1.67 2.99 1.34 3.98 1 5 C0.34 5 -0.32 5 -1 5 C-1.33 6.98 -1.66 8.96 -2 11 C-2.66 11 -3.32 11 -4 11 C-4.33 11.66 -4.66 12.32 -5 13 C-4.67 13.33 -4.34 13.66 -4 14 C-4.33 14.99 -4.66 15.98 -5 17 C-6.32 16.67 -7.64 16.34 -9 16 C-9 14.35 -9 12.7 -9 11 C-8.360625 10.773125 -7.72125 10.54625 -7.0625 10.3125 C-6.381875 9.879375 -5.70125 9.44625 -5 9 C-4.64984951 7.33678518 -4.31802943 5.66965451 -4 4 C-1.9375 1.6875 -1.9375 1.6875 0 0 Z " fill="#00004C" transform="translate(120,33)"/>
<path d="M0 0 C5.02692063 0.45699278 8.14896261 2.99241748 12 6 C11.67 6.99 11.34 7.98 11 9 C10.01 9 9.02 9 8 9 C7.67 8.34 7.34 7.68 7 7 C5.02 7.99 5.02 7.99 3 9 C2.690625 7.88625 2.38125 6.7725 2.0625 5.625 C1.17673517 2.2054845 1.17673517 2.2054845 0 0 Z " fill="#0E0946" transform="translate(96,11)"/>
<path d="M0 0 C1.65 1.65 3.3 3.3 5 5 C4.34 6.32 3.68 7.64 3 9 C0.875 9.4375 0.875 9.4375 -2 9 C-4.276147 6.87310854 -6.1458722 4.4976567 -8 2 C-7.34 1.67 -6.68 1.34 -6 1 C-6 1.66 -6 2.32 -6 3 C-4.68 3.33 -3.36 3.66 -2 4 C-1.34 2.68 -0.68 1.36 0 0 Z " fill="#DF5329" transform="translate(39,54)"/>
<path d="M0 0 C8.58 0 17.16 0 26 0 C25.01 1.65 24.02 3.3 23 5 C22.34 5 21.68 5 21 5 C20.67 5.66 20.34 6.32 20 7 C20.33 5.35 20.66 3.7 21 2 C20.030625 2.165 19.06125 2.33 18.0625 2.5 C14.19638026 3.13120322 11.34843053 2.60752319 7.4375 2 C6.23996094 1.814375 5.04242188 1.62875 3.80859375 1.4375 C2.88175781 1.293125 1.95492187 1.14875 1 1 C1 3.64 1 6.28 1 9 C0.67 9 0.34 9 0 9 C0 6.03 0 3.06 0 0 Z " fill="#D05332" transform="translate(39,39)"/>
<path d="M0 0 C1.17394879 3.52184638 0.66234423 5.39390366 0 9 C0 10.32 0 11.64 0 13 C-2.31 14.32 -4.62 15.64 -7 17 C-5.34608232 10.77274933 -3.44240996 5.46037442 0 0 Z " fill="#161252" transform="translate(9,29)"/>
<path d="M0 0 C0.99 0.495 0.99 0.495 2 1 C1.01 1.495 1.01 1.495 0 2 C0 1.34 0 0.68 0 0 Z M-1 2 C-0.01 2.66 0.98 3.32 2 4 C2.66 3.34 3.32 2.68 4 2 C4.66 3.98 5.32 5.96 6 8 C4.10114904 9.89885096 1.42752097 9.12367506 -1.08984375 9.1328125 C-3 9 -3 9 -5 8 C-5 4.99472353 -3.05564773 4.05564773 -1 2 Z " fill="#050140" transform="translate(38,7)"/>
<path d="M0 0 C0.67804687 0.43570313 1.35609375 0.87140625 2.0546875 1.3203125 C14.22393768 9.19195437 14.22393768 9.19195437 27 16 C24 17 24 17 20.7421875 15.59375 C19.44607909 14.90900714 18.15731448 14.21023895 16.875 13.5 C16.20718506 13.13632324 15.53937012 12.77264648 14.85131836 12.39794922 C9.56963725 9.45665757 4.2939654 6.30560216 0 2 C0 1.34 0 0.68 0 0 Z " fill="#C64931" transform="translate(49,77)"/>
<path d="M0 0 C7.75493514 -0.09928082 15.31068715 -0.06059488 23 1 C19.66688525 2.7824918 16.75519057 3.48792856 13 4 C12.67 4.99 12.34 5.98 12 7 C11.34 6.34 10.68 5.68 10 5 C10.33 4.01 10.66 3.02 11 2 C9.68 1.67 8.36 1.34 7 1 C7.33 1.99 7.66 2.98 8 4 C7.01 4 6.02 4 5 4 C5.33 3.01 5.66 2.02 6 1 C4.02 1 2.04 1 0 1 C0 0.67 0 0.34 0 0 Z " fill="#1B1552" transform="translate(56,2)"/>
<path d="M0 0 C2 1 4 2 6 3 C5 6 5 6 2 8 C0.92863949 10.30144109 -0.07989717 12.6340213 -1 15 C-1.33 15 -1.66 15 -2 15 C-2 10.71 -2 6.42 -2 2 C-1.01 2.495 -1.01 2.495 0 3 C0 2.01 0 1.02 0 0 Z " fill="#080041" transform="translate(3,47)"/>
<path d="M0 0 C0.99 0 1.98 0 3 0 C3.33 0.99 3.66 1.98 4 3 C3.01 3.66 2.02 4.32 1 5 C1.33 5.66 1.66 6.32 2 7 C1.01 7 0.02 7 -1 7 C-1 8.98 -1 10.96 -1 13 C-2.65 13.33 -4.3 13.66 -6 14 C-5.67 12.02 -5.34 10.04 -5 8 C-4.34 8 -3.68 8 -3 8 C-2.67 6.68 -2.34 5.36 -2 4 C-1.34 4 -0.68 4 0 4 C-0.33 3.01 -0.66 2.02 -1 1 C-0.67 0.67 -0.34 0.34 0 0 Z " fill="#110541" transform="translate(117,30)"/>
<path d="M0 0 C2.97 0 5.94 0 9 0 C9 2.31 9 4.62 9 7 C5 7 5 7 2.25 4.625 C0 2 0 2 0 0 Z " fill="#F26020" transform="translate(67,40)"/>
<path d="M0 0 C2.35953094 2.35953094 2.49141413 3.77895617 3 7 C1.27473958 7.71614583 -0.45052083 8.43229167 -2.17578125 9.1484375 C-4.26533932 10.06806692 -4.26533932 10.06806692 -7 12 C-7 10.35 -7 8.7 -7 7 C-6.34 7 -5.68 7 -5 7 C-4.731875 6.401875 -4.46375 5.80375 -4.1875 5.1875 C-3.01506533 3.02775192 -1.80630718 1.64209744 0 0 Z " fill="#0D043C" transform="translate(69,49)"/>
<path d="M0 0 C0.99 0.495 0.99 0.495 2 1 C1.01 1.495 1.01 1.495 0 2 C0 1.34 0 0.68 0 0 Z M4 1 C5.32 1.66 6.64 2.32 8 3 C8 4.65 8 6.3 8 8 C7.34 7.67 6.68 7.34 6 7 C6 6.34 6 5.68 6 5 C0.39 5 -5.22 5 -11 5 C-11 4.01 -11 3.02 -11 2 C-9.68 2.66 -8.36 3.32 -7 4 C-6.67 3.34 -6.34 2.68 -6 2 C-4.68 2.66 -3.36 3.32 -2 4 C-2 3.34 -2 2.68 -2 2 C-1.34 2 -0.68 2 0 2 C0 2.66 0 3.32 0 4 C2.77119784 2.2941742 2.77119784 2.2941742 4 1 Z " fill="#0C0137" transform="translate(59,34)"/>
<path d="M0 0 C1 1 2 2 3 3 C2.67 3.99 2.34 4.98 2 6 C1.34 6 0.68 6 0 6 C0 7.32 0 8.64 0 10 C0.99 10.66 1.98 11.32 3 12 C0.36 12 -2.28 12 -5 12 C-4.34 11.01 -3.68 10.02 -3 9 C-3.33 8.01 -3.66 7.02 -4 6 C-3.34 6 -2.68 6 -2 6 C-2.33 5.01 -2.66 4.02 -3 3 C-2.01 2.01 -1.02 1.02 0 0 Z " fill="#0C0B51" transform="translate(69,98)"/>
<path d="M0 0 C3 1 3 1 5 3 C4.67 3.66 4.34 4.32 4 5 C3.34 5 2.68 5 2 5 C2 5.66 2 6.32 2 7 C1.34 7 0.68 7 0 7 C0.33 6.01 0.66 5.02 1 4 C0.01 3.34 -0.98 2.68 -2 2 C-1.34 1.34 -0.68 0.68 0 0 Z M-2 7 C2.37336169 8.23774387 6.68871833 9.56290611 11 11 C2.9085963 12.40043526 2.9085963 12.40043526 0 11 C-1.25 8.9375 -1.25 8.9375 -2 7 Z " fill="#00004B" transform="translate(44,97)"/>
<path d="M0 0 C0.66 0.66 1.32 1.32 2 2 C1.34 2 0.68 2 0 2 C0 1.34 0 0.68 0 0 Z M-4 2 C-1.3125 2.3125 -1.3125 2.3125 1 3 C0.67 3.66 0.34 4.32 0 5 C-0.66 5 -1.32 5 -2 5 C-2.33 5.66 -2.66 6.32 -3 7 C-3.99 7.66 -4.98 8.32 -6 9 C-9.1875 8.125 -9.1875 8.125 -12 7 C-12 6.01 -12 5.02 -12 4 C-10.8553125 4.3403125 -10.8553125 4.3403125 -9.6875 4.6875 C-8.800625 4.790625 -7.91375 4.89375 -7 5 C-6.505 4.505 -6.01 4.01 -5.5 3.5 C-5.005 3.005 -4.51 2.51 -4 2 Z " fill="#02004B" transform="translate(70,55)"/>
<path d="M0 0 C0.61875 0.165 1.2375 0.33 1.875 0.5 C3.96063386 1.07634644 3.96063386 1.07634644 6 1 C6.66 2.32 7.32 3.64 8 5 C7.01 6.32 6.02 7.64 5 9 C4.34 8.34 3.68 7.68 3 7 C3.66 7 4.32 7 5 7 C5 6.34 5 5.68 5 5 C2.86906094 6.06546953 1.63412443 7.29159719 0 9 C-0.33 8.01 -0.66 7.02 -1 6 C-1.33 5.34 -1.66 4.68 -2 4 C-1.0625 1.875 -1.0625 1.875 0 0 Z " fill="#E7562D" transform="translate(50,51)"/>
<path d="M0 0 C8.35282758 1.79546761 15.94629443 6.34189255 23 11 C22.01 11.495 22.01 11.495 21 12 C18.73074561 10.96066958 16.56744274 9.87048297 14.375 8.6875 C9.31120492 6.04125451 4.63959715 4.01512749 -1 3 C-0.67 2.01 -0.34 1.02 0 0 Z " fill="#903C31" transform="translate(46,18)"/>
<path d="M0 0 C1.65 0.33 3.3 0.66 5 1 C5 3.31 5 5.62 5 8 C1.37 7.67 -2.26 7.34 -6 7 C-5.195625 6.21625 -4.39125 5.4325 -3.5625 4.625 C-1.01309583 2.28017144 -1.01309583 2.28017144 0 0 Z " fill="#E85125" transform="translate(47,41)"/>
<path d="M0 0 C3.26954202 0.56371414 4.82575883 1.49962266 7 4 C6.67 4.66 6.34 5.32 6 6 C5.34 6 4.68 6 4 6 C4 7.32 4 8.64 4 10 C3.01 9.67 2.02 9.34 1 9 C1.33 8.67 1.66 8.34 2 8 C1.484375 7.608125 0.96875 7.21625 0.4375 6.8125 C-0.036875 6.214375 -0.51125 5.61625 -1 5 C-0.6875 2.3125 -0.6875 2.3125 0 0 Z " fill="#F55F1E" transform="translate(84,54)"/>
<path d="M0 0 C1 3 1 3 1 6 C1.63106429 8.01151741 2.29373761 10.01363702 3 12 C-2.75 8.25 -2.75 8.25 -5 6 C-5 5.01 -5 4.02 -5 3 C-4.34 3 -3.68 3 -3 3 C-2.67 2.34 -2.34 1.68 -2 1 C-1.34 0.67 -0.68 0.34 0 0 Z " fill="#07003F" transform="translate(23,87)"/>
<path d="M0 0 C1.32 0 2.64 0 4 0 C3.34 3.96 2.68 7.92 2 12 C1.34 12 0.68 12 0 12 C-0.19477739 10.37585622 -0.38059458 8.75063577 -0.5625 7.125 C-0.66691406 6.22007813 -0.77132812 5.31515625 -0.87890625 4.3828125 C-1 2 -1 2 0 0 Z " fill="#070244" transform="translate(81,48)"/>
<path d="M0 0 C6.75 -0.125 6.75 -0.125 9 1 C8.67 1.66 8.34 2.32 8 3 C7.71125 3.845625 7.4225 4.69125 7.125 5.5625 C6.75375 6.366875 6.3825 7.17125 6 8 C5.01 8.33 4.02 8.66 3 9 C3 7.35 3 5.7 3 4 C2.67 4.33 2.34 4.66 2 5 C1.01 4.01 0.02 3.02 -1 2 C-0.67 1.34 -0.34 0.68 0 0 Z " fill="#010049" transform="translate(43,21)"/>
<path d="M0 0 C1.98 0.495 1.98 0.495 4 1 C4 1.99 4 2.98 4 4 C4.99 4.33 5.98 4.66 7 5 C6.34 5 5.68 5 5 5 C5 5.99 5 6.98 5 8 C5.66 8.33 6.32 8.66 7 9 C6.01 9.99 5.02 10.98 4 12 C3.13353333 10.56988027 2.28218171 9.13059381 1.4375 7.6875 C0.72400391 6.48673828 0.72400391 6.48673828 -0.00390625 5.26171875 C-1 3 -1 3 0 0 Z " fill="#140E4F" transform="translate(5,71)"/>
<path d="M0 0 C1.65 0.33 3.3 0.66 5 1 C4.34 2.65 3.68 4.3 3 6 C4.98 6 6.96 6 9 6 C9.33 5.34 9.66 4.68 10 4 C10 4.66 10 5.32 10 6 C11.65 6 13.3 6 15 6 C15 6.33 15 6.66 15 7 C12.89611431 7.05402274 10.79183286 7.09280256 8.6875 7.125 C6.92986328 7.15980469 6.92986328 7.15980469 5.13671875 7.1953125 C2 7 2 7 -1 5 C-0.67 3.35 -0.34 1.7 0 0 Z " fill="#CE4D28" transform="translate(84,88)"/>
<path d="M0 0 C0.66 0 1.32 0 2 0 C2.32613281 0.66386719 2.65226562 1.32773437 2.98828125 2.01171875 C5.18009471 6.44060436 7.35262752 10.81993819 10 15 C7.45746665 14.62593859 6.28135992 14.31776228 4.55078125 12.36328125 C2.05847168 8.23563922 0.36901726 4.9202301 0 0 Z " fill="#2C103B" transform="translate(21,40)"/>
<path d="M0 0 C1.32 0.33 2.64 0.66 4 1 C4.33 2.65 4.66 4.3 5 6 C2.36 6.66 -0.28 7.32 -3 8 C-1.125 2.25 -1.125 2.25 0 0 Z " fill="#1F0B3C" transform="translate(64,41)"/>
<path d="M0 0 C2.97 0.33 5.94 0.66 9 1 C9.33 1.99 9.66 2.98 10 4 C6.04 4 2.08 4 -2 4 C-1.34 2.68 -0.68 1.36 0 0 Z " fill="#F95E1F" transform="translate(89,90)"/>
<path d="M0 0 C0.66 0.99 1.32 1.98 2 3 C2.66 3.33 3.32 3.66 4 4 C4.33 4.99 4.66 5.98 5 7 C4.01 7 3.02 7 2 7 C1.67 7.66 1.34 8.32 1 9 C0.01 9.33 -0.98 9.66 -2 10 C-1.125 2.25 -1.125 2.25 0 0 Z M5 5 C7 6 7 6 7 6 Z " fill="#270A3C" transform="translate(104,63)"/>
<path d="M0 0 C3.38197228 1.12732409 4.24057814 2.14182373 6.5 4.8125 C7.0878125 5.49957031 7.675625 6.18664063 8.28125 6.89453125 C9.91149424 8.89158044 11.47060322 10.9250562 13 13 C12.67 13.66 12.34 14.32 12 15 C7.02782124 10.3536679 3.05409511 6.10819022 0 0 Z " fill="#13073F" transform="translate(29,55)"/>
<path d="M0 0 C0.33 0 0.66 0 1 0 C1 2.97 1 5.94 1 9 C-0.32 8.67 -1.64 8.34 -3 8 C-3.99 8 -4.98 8 -6 8 C-5.67 6.35 -5.34 4.7 -5 3 C-4.01 2.67 -3.02 2.34 -2 2 C-1.67 2.33 -1.34 2.66 -1 3 C-0.67 2.01 -0.34 1.02 0 0 Z " fill="#D04C2A" transform="translate(28,26)"/>
<path d="M0 0 C1.27351308 2.54702616 0.80191925 3.4282945 0.0625 6.125 C-0.13214844 6.84945313 -0.32679687 7.57390625 -0.52734375 8.3203125 C-0.76130859 9.15175781 -0.76130859 9.15175781 -1 10 C-2.65 9.67 -4.3 9.34 -6 9 C-5.52797514 4.75177626 -3.03344482 2.80010291 0 0 Z " fill="#140C45" transform="translate(17,20)"/>
<path d="M0 0 C4.99750727 0.49975073 8.61583979 1.56435544 13 4 C13.78375 4.391875 14.5675 4.78375 15.375 5.1875 C16.179375 5.5896875 16.179375 5.5896875 17 6 C13.99353048 7.30230734 12.90644333 6.96485975 9.765625 5.78515625 C8.60546875 5.21667969 7.4453125 4.64820312 6.25 4.0625 C4.49429688 3.21365234 4.49429688 3.21365234 2.703125 2.34765625 C1.81109375 1.90292969 0.9190625 1.45820312 0 1 C0 0.67 0 0.34 0 0 Z " fill="#241139" transform="translate(64,87)"/>
<path d="M0 0 C1.32 0.66 2.64 1.32 4 2 C3.67 2.99 3.34 3.98 3 5 C2.34 5 1.68 5 1 5 C1.33 5.99 1.66 6.98 2 8 C-0.91517292 6.92598892 -2.77810176 6.22189824 -5 4 C-4.67 3.34 -4.34 2.68 -4 2 C-2.02 2.495 -2.02 2.495 0 3 C0 2.01 0 1.02 0 0 Z " fill="#D74C2B" transform="translate(66,79)"/>
<path d="M0 0 C2.64 0 5.28 0 8 0 C8 2.31 8 4.62 8 7 C6.66382648 6.02471263 5.3311249 5.04466681 4 4.0625 C3.2575 3.51722656 2.515 2.97195312 1.75 2.41015625 C1.1725 1.94480469 0.595 1.47945313 0 1 C0 0.67 0 0.34 0 0 Z " fill="#F05C23" transform="translate(57,69)"/>
<path d="M0 0 C0.33 0 0.66 0 1 0 C1 2.31 1 4.62 1 7 C-1.31 7.66 -3.62 8.32 -6 9 C-6.33 7.68 -6.66 6.36 -7 5 C-6.01 4.34 -5.02 3.68 -4 3 C-3.01 3.33 -2.02 3.66 -1 4 C-0.67 2.68 -0.34 1.36 0 0 Z " fill="#07003C" transform="translate(125,58)"/>
<path d="M0 0 C1.98 0.66 3.96 1.32 6 2 C6 2.33 6 2.66 6 3 C5.09636719 3.06058594 4.19273438 3.12117188 3.26171875 3.18359375 C2.08222656 3.26738281 0.90273438 3.35117187 -0.3125 3.4375 C-1.48425781 3.51871094 -2.65601563 3.59992187 -3.86328125 3.68359375 C-7.02590958 3.8867371 -7.02590958 3.8867371 -10 5 C-10.99 4.34 -11.98 3.68 -13 3 C-9.8250906 1.0921416 -7.89414789 0.8390959 -4.25 1.375 C-3.45078125 1.48585938 -2.6515625 1.59671875 -1.828125 1.7109375 C-0.92320313 1.85402344 -0.92320313 1.85402344 0 2 C0 1.34 0 0.68 0 0 Z " fill="#D84C29" transform="translate(42,17)"/>
<path d="M0 0 C1.32 0.99 2.64 1.98 4 3 C3.34 4.65 2.68 6.3 2 8 C0.68 7.34 -0.64 6.68 -2 6 C-2 5.34 -2 4.68 -2 4 C-2.99 3.67 -3.98 3.34 -5 3 C-4.360625 2.690625 -3.72125 2.38125 -3.0625 2.0625 C-1.06389179 1.1654837 -1.06389179 1.1654837 0 0 Z " fill="#F55F1A" transform="translate(35,51)"/>
<path d="M0 0 C1.98 0.66 3.96 1.32 6 2 C4.36587557 3.70840281 3.13093906 4.93453047 1 6 C1 6.99 1 7.98 1 9 C0.01 9.33 -0.98 9.66 -2 10 C-1.34 6.7 -0.68 3.4 0 0 Z " fill="#09003B" transform="translate(10,28)"/>
<path d="M0 0 C0.66 0.99 1.32 1.98 2 3 C2.66 2.01 3.32 1.02 4 0 C4 2.31 4 4.62 4 7 C4.66 7.33 5.32 7.66 6 8 C5.34 8.66 4.68 9.32 4 10 C3.34 9.67 2.68 9.34 2 9 C1.67 9.66 1.34 10.32 1 11 C0.67 8.69 0.34 6.38 0 4 C-0.66 4 -1.32 4 -2 4 C-2 3.34 -2 2.68 -2 2 C-1.34 2 -0.68 2 0 2 C0 1.34 0 0.68 0 0 Z " fill="#C3492A" transform="translate(95,53)"/>
<path d="M0 0 C3.3 0 6.6 0 10 0 C10.66 3.63 11.32 7.26 12 11 C8 9 8 9 7 6 C7.66 6 8.32 6 9 6 C9 4.35 9 2.7 9 1 C6.03 1 3.06 1 0 1 C0 0.67 0 0.34 0 0 Z " fill="#C3472F" transform="translate(67,39)"/>
<path d="M0 0 C0.66 0.66 1.32 1.32 2 2 C1.67 2.33 1.34 2.66 1 3 C1.66 3.33 2.32 3.66 3 4 C2.25 8.75 2.25 8.75 0 11 C-1.20628008 8.66785852 -2.1654738 6.50357861 -3 4 C-2.34 4 -1.68 4 -1 4 C-0.67 2.68 -0.34 1.36 0 0 Z " fill="#D3522D" transform="translate(91,56)"/>
<path d="M0 0 C0.99 1.32 1.98 2.64 3 4 C3.66 4.33 4.32 4.66 5 5 C4.175 5.61875 3.35 6.2375 2.5 6.875 C1.2625 7.926875 1.2625 7.926875 0 9 C0 9.66 0 10.32 0 11 C-0.99 11 -1.98 11 -3 11 C-2.01 7.37 -1.02 3.74 0 0 Z " fill="#18083B" transform="translate(110,45)"/>
<path d="M0 0 C0.66 0.33 1.32 0.66 2 1 C2 1.99 2 2.98 2 4 C4.43717258 3.72965366 4.43717258 3.72965366 7 3 C7.66 2.01 8.32 1.02 9 0 C8.67 1.65 8.34 3.3 8 5 C6.21128822 5.38885039 4.41887126 5.76069196 2.625 6.125 C1.62726563 6.33382812 0.62953125 6.54265625 -0.3984375 6.7578125 C-1.25695312 6.83773437 -2.11546875 6.91765625 -3 7 C-3.66 6.34 -4.32 5.68 -5 5 C-4.360625 4.731875 -3.72125 4.46375 -3.0625 4.1875 C-0.66868314 3.11332248 -0.66868314 3.11332248 0 0 Z " fill="#3F1433" transform="translate(93,73)"/>
<path d="M0 0 C1.32 0 2.64 0 4 0 C4 0.66 4 1.32 4 2 C5.32 1.34 6.64 0.68 8 0 C8.33 1.32 8.66 2.64 9 4 C4.545 4.495 4.545 4.495 0 5 C0 3.35 0 1.7 0 0 Z " fill="#F05B1E" transform="translate(76,65)"/>
<path d="M0 0 C0.66 0.33 1.32 0.66 2 1 C2 1.66 2 2.32 2 3 C2.66 3.33 3.32 3.66 4 4 C3.01 4.33 2.02 4.66 1 5 C0.26676204 7.01508358 0.26676204 7.01508358 0 9 C-0.66 8.67 -1.32 8.34 -2 8 C-2.99 7.67 -3.98 7.34 -5 7 C-5 6.01 -5 5.02 -5 4 C-4.01 4 -3.02 4 -2 4 C-1.34 2.68 -0.68 1.36 0 0 Z " fill="#F95C1E" transform="translate(106,43)"/>
<path d="M0 0 C0.66 0.33 1.32 0.66 2 1 C2 4.10551666 1.4606285 5.35261084 0 8 C-0.99 7.67 -1.98 7.34 -3 7 C-2.625 4.0625 -2.625 4.0625 -2 1 C-1.34 0.67 -0.68 0.34 0 0 Z M-1 8 C-0.67 8.66 -0.34 9.32 0 10 C-0.66 9.67 -1.32 9.34 -2 9 C-1.67 8.67 -1.34 8.34 -1 8 Z " fill="#07003A" transform="translate(106,70)"/>
<path d="M0 0 C2 3 2 3 2 6 C1.34 6.66 0.68 7.32 0 8 C0.33 8.66 0.66 9.32 1 10 C-0.98 10.99 -0.98 10.99 -3 12 C-3.43200679 7.24792529 -1.98489083 4.21789302 0 0 Z " fill="#11033A" transform="translate(89,61)"/>
<path d="M0 0 C0.99 0 1.98 0 3 0 C3.66 2.97 4.32 5.94 5 9 C4.67 8.34 4.34 7.68 4 7 C3.34 7 2.68 7 2 7 C1.67 7.66 1.34 8.32 1 9 C1 8.01 1 7.02 1 6 C0.34 6 -0.32 6 -1 6 C-1 4 -1 4 0.5 2.375 C0.995 1.92125 1.49 1.4675 2 1 C1.34 0.67 0.68 0.34 0 0 Z " fill="#D14F2B" transform="translate(89,40)"/>
<path d="M0 0 C1.125 1.75 1.125 1.75 2 4 C0.76920818 7.48724349 -1.42012276 9.42012276 -4 12 C-4.66 9.69 -5.32 7.38 -6 5 C-5.34 5 -4.68 5 -4 5 C-4 5.66 -4 6.32 -4 7 C-3.01 7 -2.02 7 -1 7 C-0.67 4.69 -0.34 2.38 0 0 Z " fill="#D75129" transform="translate(29,35)"/>
<path d="M0 0 C3.16115776 1.36983503 3.9927092 1.9890638 6 5 C3.64561267 6.42944945 2.51967567 7.08661261 -0.25 6.625 C-0.8275 6.41875 -1.405 6.2125 -2 6 C-1.34 4.02 -0.68 2.04 0 0 Z " fill="#0F0B4B" transform="translate(112,23)"/>
<path d="M0 0 C0.99 0.99 1.98 1.98 3 3 C1.68 3 0.36 3 -1 3 C0.32 3.66 1.64 4.32 3 5 C0.525 6.485 0.525 6.485 -2 8 C-2.66 6.68 -3.32 5.36 -4 4 C-2.68 2.68 -1.36 1.36 0 0 Z " fill="#00004C" transform="translate(28,91)"/>
<path d="M0 0 C0.33 0.99 0.66 1.98 1 3 C1.33 2.34 1.66 1.68 2 1 C2.66 1 3.32 1 4 1 C6 4 6 4 6 7 C4.35 7 2.7 7 1 7 C0.67 4.69 0.34 2.38 0 0 Z " fill="#FB621B" transform="translate(94,70)"/>
<path d="M0 0 C2.60608273 2.5162178 4.89381685 5.05134359 7 8 C6.34 8.66 5.68 9.32 5 10 C2.69 7.69 0.38 5.38 -2 3 C-1.34 2.01 -0.68 1.02 0 0 Z " fill="#3C1936" transform="translate(46,58)"/>
<path d="M0 0 C2.79872437 2.52788007 4.45773019 4.20411134 5 8 C3.33333333 8 1.66666667 8 0 8 C-0.79953138 4.71303767 -1.09658936 3.28976808 0 0 Z " fill="#01004A" transform="translate(35,41)"/>
<path d="M0 0 C2.67927341 4.01891012 2.15601248 6.24161923 2 11 C0.68 11.33 -0.64 11.66 -2 12 C-1.67 10.68 -1.34 9.36 -1 8 C-2.32 7.34 -3.64 6.68 -5 6 C-3.68 5.34 -2.36 4.68 -1 4 C-1.33 3.34 -1.66 2.68 -2 2 C-1.34 2 -0.68 2 0 2 C0 1.34 0 0.68 0 0 Z " fill="#0F0033" transform="translate(102,20)"/>
<path d="M0 0 C2.02045442 0.60183749 4.02111039 1.27306096 6 2 C6.33 2.66 6.66 3.32 7 4 C7.66 3.67 8.32 3.34 9 3 C8.67 3.99 8.34 4.98 8 6 C6.35 6.33 4.7 6.66 3 7 C3 6.34 3 5.68 3 5 C2.34 4.34 1.68 3.68 1 3 C0.67 2.01 0.34 1.02 0 0 Z " fill="#0B0036" transform="translate(87,20)"/>
<path d="M0 0 C2.97 0.33 5.94 0.66 9 1 C8.01 1.495 8.01 1.495 7 2 C6.67 2.66 6.34 3.32 6 4 C5.01 3.34 4.02 2.68 3 2 C2.67 2.66 2.34 3.32 2 4 C1.01 3.67 0.02 3.34 -1 3 C-0.67 2.01 -0.34 1.02 0 0 Z " fill="#020049" transform="translate(84,98)"/>
<path d="M0 0 C0.99 0.66 1.98 1.32 3 2 C2.67 3.32 2.34 4.64 2 6 C0.35 6.33 -1.3 6.66 -3 7 C-2.67 5.68 -2.34 4.36 -2 3 C-1.34 3 -0.68 3 0 3 C0 2.01 0 1.02 0 0 Z " fill="#F25D1C" transform="translate(29,40)"/>
<path d="M0 0 C-0.639375 0.28875 -1.27875 0.5775 -1.9375 0.875 C-4.15206079 1.82823451 -4.15206079 1.82823451 -5 4 C-5.66 4 -6.32 4 -7 4 C-7.33 4.66 -7.66 5.32 -8 6 C-8.66 4.35 -9.32 2.7 -10 1 C-3.71428571 -1.42857143 -3.71428571 -1.42857143 0 0 Z " fill="#1C1457" transform="translate(53,4)"/>
<path d="M0 0 C2 2 2 2 2 5 C0 7.1875 0 7.1875 -2 9 C-2.66 8.34 -3.32 7.68 -4 7 C-3.34 6.34 -2.68 5.68 -2 5 C-2 3.68 -2 2.36 -2 1 C-1.34 0.67 -0.68 0.34 0 0 Z " fill="#000048" transform="translate(81,97)"/>
<path d="M0 0 C0.66 0.33 1.32 0.66 2 1 C1.67 1.66 1.34 2.32 1 3 C1.66 3.66 2.32 4.32 3 5 C1.33333333 6.66666667 -0.33333333 8.33333333 -2 10 C-2.1953125 3.9453125 -2.1953125 3.9453125 -2 2 C-1.34 1.34 -0.68 0.68 0 0 Z " fill="#130844" transform="translate(31,22)"/>
<path d="M0 0 C0.598125 0.309375 1.19625 0.61875 1.8125 0.9375 C4.08956772 2.10209704 4.08956772 2.10209704 7 3 C7 4.98 7 6.96 7 9 C4 8 4 8 2.9375 6.1875 C2.628125 5.465625 2.31875 4.74375 2 4 C1.62875 3.2575 1.2575 2.515 0.875 1.75 C0.58625 1.1725 0.2975 0.595 0 0 Z " fill="#0C0035" transform="translate(40,22)"/>
<path d="M0 0 C2 1 2 1 3 3 C4.32 3 5.64 3 7 3 C7 3.66 7 4.32 7 5 C4.69 5 2.38 5 0 5 C-0.33 4.01 -0.66 3.02 -1 2 C-0.67 1.34 -0.34 0.68 0 0 Z " fill="#060237" transform="translate(69,104)"/>
<path d="M0 0 C0.66 1.32 1.32 2.64 2 4 C0.35 5.98 -1.3 7.96 -3 10 C-3.66 9.01 -4.32 8.02 -5 7 C-3.35 4.69 -1.7 2.38 0 0 Z " fill="#110D54" transform="translate(116,81)"/>
<path d="M0 0 C2.375 0.3125 2.375 0.3125 5 1 C5.66 1.99 6.32 2.98 7 4 C6.34 4 5.68 4 5 4 C4.67 4.99 4.34 5.98 4 7 C3.34 6.67 2.68 6.34 2 6 C1.375 3.9375 1.375 3.9375 1 2 C0.67 2.66 0.34 3.32 0 4 C-0.33 3.34 -0.66 2.68 -1 2 C-0.67 1.34 -0.34 0.68 0 0 Z " fill="#02004D" transform="translate(9,58)"/>
<path d="M0 0 C1.32 0.66 2.64 1.32 4 2 C3.01 3.485 3.01 3.485 2 5 C2.66 5.66 3.32 6.32 4 7 C3.01 7.495 3.01 7.495 2 8 C1.01 7.67 0.02 7.34 -1 7 C-0.67 4.69 -0.34 2.38 0 0 Z " fill="#FA6316" transform="translate(22,21)"/>
<path d="M0 0 C1.98 0.99 1.98 0.99 4 2 C3.67 2.99 3.34 3.98 3 5 C3 5.99 3 6.98 3 8 C0.37613513 4.93882432 0 4.26826873 0 0 Z M4 0 C4.99 0.495 4.99 0.495 6 1 C5.01 1.495 5.01 1.495 4 2 C4 1.34 4 0.68 4 0 Z M4 5 C6 6 6 6 6 6 Z " fill="#0B0940" transform="translate(10,80)"/>
<path d="M0 0 C0.66 1.32 1.32 2.64 2 4 C2.66 4.66 3.32 5.32 4 6 C3.01 8.31 2.02 10.62 1 13 C0.67 13 0.34 13 0 13 C0 8.71 0 4.42 0 0 Z " fill="#292761" transform="translate(1,49)"/>
<path d="M0 0 C1.41687119 4.25061356 0.19320039 6.71851625 -1 11 C-3 9 -3 9 -3.125 5.875 C-3.08375 4.92625 -3.0425 3.9775 -3 3 C-2.34 3 -1.68 3 -1 3 C-0.67 2.01 -0.34 1.02 0 0 Z " fill="#040043" transform="translate(99,47)"/>
<path d="M0 0 C1.5625 1.75 1.5625 1.75 3 4 C2.6875 6.25 2.6875 6.25 2 8 C1.01 7.67 0.02 7.34 -1 7 C-1.8125 5.125 -1.8125 5.125 -2 3 C-1.34 2.01 -0.68 1.02 0 0 Z " fill="#191755" transform="translate(122,36)"/>
<path d="M0 0 C0.598125 0.20625 1.19625 0.4125 1.8125 0.625 C1.4825 0.955 1.1525 1.285 0.8125 1.625 C1.4725 2.285 2.1325 2.945 2.8125 3.625 C1.8125 4.625 1.8125 4.625 -0.625 4.75 C-3.1875 4.625 -3.1875 4.625 -5.1875 3.625 C-5.1875 2.965 -5.1875 2.305 -5.1875 1.625 C-2.1875 -0.375 -2.1875 -0.375 0 0 Z " fill="#090037" transform="translate(56.1875,104.375)"/>
<path d="M0 0 C2.02045442 0.60183749 4.02111039 1.27306096 6 2 C6.33 2.66 6.66 3.32 7 4 C5.02 4.33 3.04 4.66 1 5 C0.67 3.35 0.34 1.7 0 0 Z " fill="#110C4B" transform="translate(75,104)"/>
<path d="M0 0 C4.75 0.75 4.75 0.75 7 3 C4.36 3.66 1.72 4.32 -1 5 C-0.67 3.35 -0.34 1.7 0 0 Z " fill="#111152" transform="translate(85,102)"/>
<path d="M0 0 C0.66 0 1.32 0 2 0 C2 0.66 2 1.32 2 2 C1.34 2 0.68 2 0 2 C0 1.34 0 0.68 0 0 Z M-2 2 C0.625 2.375 0.625 2.375 3 3 C2.34 4.32 1.68 5.64 1 7 C-0.65 6.01 -2.3 5.02 -4 4 C-3.34 3.34 -2.68 2.68 -2 2 Z " fill="#111350" transform="translate(31,96)"/>
<path d="M0 0 C1.32 0.66 2.64 1.32 4 2 C-1.75 7 -1.75 7 -4 7 C-2.79618552 4.50638429 -1.54571278 2.31856917 0 0 Z " fill="#1A134D" transform="translate(108,90)"/>
<path d="M0 0 C0.66 0.33 1.32 0.66 2 1 C1.67 2.65 1.34 4.3 1 6 C-1.31 5.67 -3.62 5.34 -6 5 C-5.34 4.67 -4.68 4.34 -4 4 C-3.67 3.01 -3.34 2.02 -3 1 C-2.34 1.66 -1.68 2.32 -1 3 C-0.67 2.01 -0.34 1.02 0 0 Z " fill="#0E0037" transform="translate(120,68)"/>
<path d="M0 0 C0.66 0.99 1.32 1.98 2 3 C1.67 3.99 1.34 4.98 1 6 C0.01 5.67 -0.98 5.34 -2 5 C-1.125 1.125 -1.125 1.125 0 0 Z M3 0 C3.66 0 4.32 0 5 0 C5 0.66 5 1.32 5 2 C4.01 2.33 3.02 2.66 2 3 C2.33 2.01 2.66 1.02 3 0 Z " fill="#240937" transform="translate(60,50)"/>
<path d="M0 0 C0.99 0.33 1.98 0.66 3 1 C3.33 0.67 3.66 0.34 4 0 C4.66 1.32 5.32 2.64 6 4 C4.02 4 2.04 4 0 4 C0 2.66666667 0 1.33333333 0 0 Z M6 0 C6.99 0.495 6.99 0.495 8 1 C7.01 1.495 7.01 1.495 6 2 C6 1.34 6 0.68 6 0 Z M2 4 C4 5 4 5 4 5 Z " fill="#0C0037" transform="translate(58,18)"/>
<path d="M0 0 C1.32 0.66 2.64 1.32 4 2 C-2.625 6 -2.625 6 -6 6 C-4 4 -2 2 0 0 Z " fill="#8A4144" transform="translate(25,13)"/>
<path d="M0 0 C2.4375 0.6875 2.4375 0.6875 5 2 C5.8125 4.625 5.8125 4.625 6 7 C3 5.1875 3 5.1875 0 3 C0 2.01 0 1.02 0 0 Z " fill="#141149" transform="translate(20,92)"/>
<path d="M0 0 C1.65 0 3.3 0 5 0 C4.67 0.66 4.34 1.32 4 2 C3.34 2 2.68 2 2 2 C2 2.66 2 3.32 2 4 C0.35 4.33 -1.3 4.66 -3 5 C-2.67 4.01 -2.34 3.02 -2 2 C-1.34 2 -0.68 2 0 2 C0 1.34 0 0.68 0 0 Z " fill="#0F0242" transform="translate(89,84)"/>
<path d="M0 0 C1.62418745 -0.08090971 3.24951745 -0.13914995 4.875 -0.1875 C5.77992187 -0.22230469 6.68484375 -0.25710937 7.6171875 -0.29296875 C8.79667969 -0.14794922 8.79667969 -0.14794922 10 0 C10.66 0.99 11.32 1.98 12 3 C10.02 3.99 10.02 3.99 8 5 C7.67 4.01 7.34 3.02 7 2 C4.69 1.67 2.38 1.34 0 1 C0 0.67 0 0.34 0 0 Z " fill="#210533" transform="translate(38,77)"/>
<path d="M0 0 C0.99 0.99 1.98 1.98 3 3 C2.34 4.32 1.68 5.64 1 7 C0.67 6.01 0.34 5.02 0 4 C-0.99 3.67 -1.98 3.34 -3 3 C-2.01 2.01 -1.02 1.02 0 0 Z " fill="#F45E19" transform="translate(94,56)"/>
<path d="M0 0 C0.99 0.66 1.98 1.32 3 2 C3 2.66 3 3.32 3 4 C2.01 4.66 1.02 5.32 0 6 C-0.66 6.66 -1.32 7.32 -2 8 C-2 5.69 -2 3.38 -2 1 C-1.34 0.67 -0.68 0.34 0 0 Z " fill="#05003D" transform="translate(4,56)"/>
<path d="M0 0 C1.32 0.33 2.64 0.66 4 1 C3.67 3.31 3.34 5.62 3 8 C2.34 8 1.68 8 1 8 C0.67 5.36 0.34 2.72 0 0 Z " fill="#491C35" transform="translate(80,52)"/>
<path d="M0 0 C0.33 1.32 0.66 2.64 1 4 C1.99 4.33 2.98 4.66 4 5 C2.25 8.875 2.25 8.875 0 10 C0 6.7 0 3.4 0 0 Z " fill="#EA562B" transform="translate(20,24)"/>
<path d="M0 0 C0.33 1.65 0.66 3.3 1 5 C-0.32 4.34 -1.64 3.68 -3 3 C-3.66 3.66 -4.32 4.32 -5 5 C-5.66 5 -6.32 5 -7 5 C-5.64703851 0.94111554 -4.27479763 0 0 0 Z " fill="#0F0033" transform="translate(73,13)"/>
<path d="M0 0 C7.75 -0.125 7.75 -0.125 10 1 C10 1.66 10 2.32 10 3 C8.68 3.33 7.36 3.66 6 4 C5.67 3.34 5.34 2.68 5 2 C2.47266765 1.34444881 2.47266765 1.34444881 0 1 C0 0.67 0 0.34 0 0 Z " fill="#E45328" transform="translate(93,90)"/>
<path d="M0 0 C0.99 0.33 1.98 0.66 3 1 C2.67 2.65 2.34 4.3 2 6 C0.68 5.34 -0.64 4.68 -2 4 C-2 3.34 -2 2.68 -2 2 C-1.34 2 -0.68 2 0 2 C0 1.34 0 0.68 0 0 Z " fill="#F45D22" transform="translate(69,82)"/>
<path d="M0 0 C2.625 -0.1875 2.625 -0.1875 5 0 C4.34 1.65 3.68 3.3 3 5 C2.01 5 1.02 5 0 5 C-0.66 4.34 -1.32 3.68 -2 3 C-1.34 2.01 -0.68 1.02 0 0 Z " fill="#02004D" transform="translate(33,21)"/>
<path d="M0 0 C1.65 0 3.3 0 5 0 C5 0.66 5 1.32 5 2 C5.99 2.33 6.98 2.66 8 3 C5.08517222 3.80967438 3.53886783 4.21845993 0.6875 3.0625 C0.130625 2.711875 -0.42625 2.36125 -1 2 C-0.67 1.34 -0.34 0.68 0 0 Z " fill="#0D054B" transform="translate(54,19)"/>
<path d="M0 0 C1.32 0.99 2.64 1.98 4 3 C3.071875 3.4021875 3.071875 3.4021875 2.125 3.8125 C-0.2995233 4.95556848 -0.2995233 4.95556848 -2 8 C-1.125 1.125 -1.125 1.125 0 0 Z " fill="#191155" transform="translate(4,60)"/>
<path d="M0 0 C0.99 0 1.98 0 3 0 C3 1.65 3 3.3 3 5 C0 5 0 5 -3 4 C-3 3.34 -3 2.68 -3 2 C-2.01 2 -1.02 2 0 2 C0 1.34 0 0.68 0 0 Z " fill="#FC5D1C" transform="translate(77,53)"/>
<path d="M0 0 C0.99 0.33 1.98 0.66 3 1 C2.34 2.98 1.68 4.96 1 7 C0.34 7 -0.32 7 -1 7 C-1.04254356 5.00045254 -1.04080783 2.99958364 -1 1 C-0.67 0.67 -0.34 0.34 0 0 Z " fill="#EB5724" transform="translate(107,47)"/>
<path d="M0 0 C2.475 0.495 2.475 0.495 5 1 C4.67 2.32 4.34 3.64 4 5 C2.68 5 1.36 5 0 5 C0 3.35 0 1.7 0 0 Z " fill="#F6571F" transform="translate(40,40)"/>
<path d="M0 0 C2.0625 0.4375 2.0625 0.4375 4 1 C4.33 2.32 4.66 3.64 5 5 C3.35 4.67 1.7 4.34 0 4 C-0.33 3.01 -0.66 2.02 -1 1 C-0.67 0.67 -0.34 0.34 0 0 Z " fill="#020049" transform="translate(46,14)"/>
<path d="M0 0 C2.1640625 0.0234375 2.1640625 0.0234375 4.625 0.375 C5.85089844 0.54128906 5.85089844 0.54128906 7.1015625 0.7109375 C7.72804688 0.80632812 8.35453125 0.90171875 9 1 C8.34 1.66 7.68 2.32 7 3 C4.8359375 2.9765625 4.8359375 2.9765625 2.375 2.625 C1.55773438 2.51414062 0.74046875 2.40328125 -0.1015625 2.2890625 C-0.72804687 2.19367188 -1.35453125 2.09828125 -2 2 C-1.34 1.34 -0.68 0.68 0 0 Z " fill="#332D60" transform="translate(46,106)"/>
<path d="M0 0 C1.65 0 3.3 0 5 0 C4.67 1.32 4.34 2.64 4 4 C2.35 4 0.7 4 -1 4 C-0.67 2.68 -0.34 1.36 0 0 Z " fill="#CC4E2A" transform="translate(80,74)"/>
<path d="M0 0 C0.99 0 1.98 0 3 0 C3 0.99 3 1.98 3 3 C2.34 3 1.68 3 1 3 C1 3.66 1 4.32 1 5 C0.01 4.67 -0.98 4.34 -2 4 C-1.34 2.68 -0.68 1.36 0 0 Z " fill="#03004B" transform="translate(46,49)"/>
<path d="M0 0 C2.64 0 5.28 0 8 0 C7.34 1.32 6.68 2.64 6 4 C5.67 3.34 5.34 2.68 5 2 C2.47266765 1.34444881 2.47266765 1.34444881 0 1 C0 0.67 0 0.34 0 0 Z " fill="#FC661E" transform="translate(104,40)"/>
<path d="M0 0 C0 2.31 0 4.62 0 7 C-0.99 6.67 -1.98 6.34 -3 6 C-3.33 5.01 -3.66 4.02 -4 3 C-1.125 0 -1.125 0 0 0 Z " fill="#03004E" transform="translate(110,29)"/>
<path d="M0 0 C1.32 0 2.64 0 4 0 C3.34 1.65 2.68 3.3 2 5 C1.01 5 0.02 5 -1 5 C-0.67 3.35 -0.34 1.7 0 0 Z " fill="#0C094E" transform="translate(39,6)"/>
<path d="M0 0 C2.97 0.495 2.97 0.495 6 1 C5.34 2.65 4.68 4.3 4 6 C2.62437146 4.71034824 1.29233607 3.37310707 0 2 C0 1.34 0 0.68 0 0 Z " fill="#1B1857" transform="translate(81,4)"/>
</svg>
